<?xml version="1.0" standalone="no"?>
<!DOCTYPE svg PUBLIC "-//W3C//DTD SVG 20010904//EN"
 "http://www.w3.org/TR/2001/REC-SVG-20010904/DTD/svg10.dtd">
<svg version="1.0" xmlns="http://www.w3.org/2000/svg"
 width="797.000000pt" height="797.000000pt" viewBox="0 0 797.000000 797.000000"
 preserveAspectRatio="xMidYMid meet">
<metadata>
Created by potrace 1.11, written by Peter Selinger 2001-2013
</metadata>
<g transform="translate(0.000000,797.000000) scale(0.100000,-0.100000)"
fill="#000000" stroke="none">
<path d="M0 3985 l0 -3985 3980 0 3980 0 0 3985 0 3985 -3980 0 -3980 0 0
-3985z m2436 1970 c338 -605 663 -1187 722 -1292 59 -106 110 -193 113 -193 3
0 125 204 270 453 144 248 324 556 399 683 74 127 295 506 490 842 l355 611
523 1 522 0 0 -2620 0 -2620 725 0 725 0 -2 -452 -3 -453 -1962 -3 -1963 -2 0
455 0 455 723 2 722 3 3 1650 c2 1388 0 1647 -11 1635 -8 -8 -90 -143 -182
-300 -93 -157 -233 -395 -313 -530 -80 -135 -217 -366 -305 -515 -88 -148
-172 -290 -187 -315 -15 -25 -50 -83 -77 -130 -43 -74 -285 -482 -422 -712
-25 -43 -48 -78 -51 -78 -3 0 -141 242 -307 538 -263 468 -782 1390 -1151
2044 l-117 207 -3 -1759 -2 -1760 -500 0 -500 0 0 2630 0 2630 576 -2 576 -3
614 -1100z"/>
</g>
</svg>
